<svg xmlns="http://www.w3.org/2000/svg" width="55" height="55" viewBox="0 0 55 55">
  <path id="Icon_awesome-linkedin" data-name="Icon awesome-linkedin" d="M51.071,3.125H3.916A3.946,3.946,0,0,0,0,7.09V54.16a3.946,3.946,0,0,0,3.916,3.965H51.071A3.956,3.956,0,0,0,55,54.16V7.09A3.956,3.956,0,0,0,51.071,3.125ZM16.623,50.268H8.471V24.02h8.164V50.268ZM12.547,20.435a4.727,4.727,0,1,1,4.727-4.727A4.729,4.729,0,0,1,12.547,20.435ZM47.18,50.268H39.028V37.5c0-3.045-.061-6.961-4.235-6.961-4.248,0-4.9,3.315-4.9,6.74V50.268H21.742V24.02h7.82V27.6h.11A8.586,8.586,0,0,1,37.4,23.369c8.25,0,9.785,5.439,9.785,12.51Z" transform="translate(0 -3.125)" fill="#0966c2"/>
</svg>
